<svg width="164" height="44" viewBox="0 0 164 44" fill="none" xmlns="http://www.w3.org/2000/svg">
<path d="M35.4104 43.3878H8.59216C4.18501 43.3878 0.613281 39.8161 0.613281 35.409V8.59071C0.613281 4.18355 4.18501 0.611816 8.59216 0.611816H35.4104C39.8176 0.611816 43.3893 4.18355 43.3893 8.59071V35.409C43.3893 39.8161 39.8176 43.3878 35.4104 43.3878Z" fill="#023047"/>
<path d="M29.7069 22.3934C30.4697 23.3499 30.8572 24.4638 30.8572 25.7229C30.8572 27.5754 30.2397 29.0283 29.0047 30.0574C27.7698 31.0866 26.002 31.6193 23.7016 31.6193H13.6523V10.0073H23.4595C25.663 10.0073 27.3581 10.4916 28.5568 11.4481C29.7554 12.4046 30.3608 13.7728 30.3608 15.5405C30.3608 16.8481 30.0097 17.9257 29.3195 18.7974C28.6294 19.6692 27.7213 20.2261 26.5953 20.4925C27.9151 20.8073 28.9442 21.4369 29.7069 22.3934ZM18.8707 18.8458H22.2971C24.1133 18.8458 25.0213 18.071 25.0213 16.5212C25.0213 14.9714 24.0891 14.1965 22.2366 14.1965H18.8707V18.8458ZM25.5056 24.9965C25.5056 24.2216 25.2514 23.6162 24.7429 23.1804C24.2344 22.7445 23.5079 22.5266 22.5756 22.5266H18.8828V27.3817H22.6119C24.537 27.3696 25.5056 26.5826 25.5056 24.9965Z" fill="white"/>
<path d="M68.1726 31.6193L63.499 23.4588H62.3125V31.6193H57.082V10.0073H66.0053C67.7125 10.0073 69.1654 10.2979 70.3398 10.8912C71.5264 11.4845 72.4102 12.2957 73.0035 13.3248C73.5967 14.3539 73.8873 15.5284 73.8873 16.8602C73.8873 18.4342 73.4515 19.766 72.5918 20.8678C71.7201 21.9696 70.473 22.7203 68.8143 23.1319L73.9479 31.6314H68.1726V31.6193ZM62.3125 19.8871H65.5452C66.5865 19.8871 67.3493 19.6571 67.8336 19.197C68.3179 18.7369 68.5721 18.0589 68.5721 17.1629C68.5721 16.3033 68.3178 15.6373 67.8214 15.1409C67.325 14.6566 66.5622 14.4024 65.5452 14.4024H62.3125V19.8871Z" fill="#023047"/>
<path d="M97.5462 27.6843H89.4463L88.1023 31.6314H82.6055L90.5238 10.1768H96.5413L104.46 31.6314H98.9023L97.5462 27.6843ZM96.2023 23.7009L93.5144 15.7583L90.7902 23.7009H96.2023Z" fill="#023047"/>
<path d="M133.312 31.6193H128.081L119.34 18.3494V31.6193H114.109V10.0073H119.34L128.081 23.3983V10.0073H133.312V31.6193Z" fill="#023047"/>
<path d="M162.635 26.4132C161.727 28.0477 160.42 29.3311 158.724 30.2513C157.017 31.1714 155.02 31.6315 152.719 31.6315H144.559V10.0195H152.719C155.044 10.0195 157.054 10.4675 158.737 11.3635C160.432 12.2594 161.727 13.5186 162.635 15.1531C163.543 16.7877 163.991 18.6522 163.991 20.7832C163.991 22.8899 163.531 24.7665 162.635 26.4132ZM157.005 25.3235C158.131 24.2459 158.7 22.7204 158.7 20.771C158.7 18.8096 158.131 17.2962 157.005 16.2186C155.879 15.141 154.293 14.5962 152.247 14.5962H149.777V26.9459H152.247C154.293 26.9459 155.879 26.4132 157.005 25.3235Z" fill="#023047"/>
</svg>
