<svg width="132" height="44" viewBox="0 0 132 44" fill="none" xmlns="http://www.w3.org/2000/svg">
<path d="M11.6416 0.816406V1.00198L10.8708 1.18754V9.40968L11.6416 9.59524V9.78082H7.98727V9.59524L8.75811 9.40968V2.40088L5.73191 9.90929H5.34647L1.42098 2.40088V9.20983L2.44875 9.59524V9.78082H0.0078125V9.59524L1.03558 9.20983V1.18754L0.264744 1.00198V0.816406H1.86348C2.10615 0.816406 2.32027 0.844955 2.49157 0.902053C2.66286 0.959151 2.83418 1.03052 2.96265 1.13045C3.1054 1.23037 3.21959 1.34457 3.31952 1.47304C3.41944 1.60151 3.50509 1.75853 3.59073 1.91555L6.38853 7.2685L8.52971 1.91555C8.60108 1.72998 8.67248 1.57296 8.7724 1.44449C8.85805 1.31602 8.97221 1.20182 9.10068 1.1019C9.22916 1.00198 9.3862 0.930601 9.57177 0.887778C9.75734 0.844954 9.98572 0.816406 10.2712 0.816406H11.6416Z" fill="#023047"/>
<path d="M16.2098 3.2002C16.738 3.2002 17.2233 3.27157 17.6373 3.42859C18.0513 3.58561 18.4081 3.814 18.7079 4.09949C19.0077 4.39926 19.2218 4.75612 19.3788 5.17008C19.5358 5.58404 19.6072 6.06938 19.6072 6.59753C19.6072 7.12569 19.5358 7.61103 19.3788 8.02499C19.2218 8.43895 18.9934 8.79581 18.7079 9.09558C18.4081 9.39534 18.0513 9.60946 17.6373 9.76648C17.2233 9.9235 16.738 9.99487 16.2098 9.99487C15.6817 9.99487 15.1964 9.9235 14.7824 9.76648C14.3684 9.60946 14.0116 9.38107 13.7118 9.09558C13.412 8.79581 13.1979 8.43895 13.0409 8.02499C12.8839 7.61103 12.8125 7.12569 12.8125 6.59753C12.8125 6.06938 12.8839 5.58404 13.0409 5.17008C13.1979 4.75612 13.4263 4.39926 13.7118 4.09949C14.0116 3.79972 14.3684 3.58561 14.7824 3.42859C15.1964 3.27157 15.6674 3.2002 16.2098 3.2002ZM16.2098 9.75221C16.3526 9.75221 16.4953 9.70938 16.6524 9.60946C16.7951 9.50954 16.9236 9.35252 17.0378 9.10985C17.1519 8.86719 17.2519 8.55314 17.3233 8.15346C17.3946 7.7395 17.4374 7.22561 17.4374 6.61181C17.4374 5.98373 17.3946 5.46985 17.3233 5.07016C17.2519 4.67047 17.1519 4.34216 17.0378 4.11376C16.9236 3.88537 16.7951 3.71408 16.6524 3.61416C16.5096 3.51424 16.3669 3.47141 16.2098 3.47141C16.0671 3.47141 15.9244 3.51424 15.7673 3.61416C15.6246 3.71408 15.4961 3.8711 15.3819 4.11376C15.2677 4.35643 15.1678 4.67047 15.0964 5.07016C15.0251 5.48412 14.9822 5.998 14.9822 6.61181C14.9822 7.23989 15.0251 7.75377 15.0964 8.15346C15.1678 8.55314 15.2677 8.88146 15.3819 9.10985C15.4961 9.33824 15.6246 9.50954 15.7673 9.60946C15.9101 9.69511 16.0528 9.75221 16.2098 9.75221Z" fill="#023047"/>
<path d="M25.8457 0.816406C26.6166 0.816406 27.002 1.20182 27.002 1.97264V9.42395L27.7728 9.60952V9.79509H26.6166C26.3025 9.79509 26.0598 9.75227 25.8743 9.65234C25.6887 9.55242 25.5317 9.43823 25.4318 9.32403C25.3033 9.18128 25.2034 9.00999 25.1463 8.8387C25.0321 9.06709 24.8893 9.25266 24.718 9.42395C24.5753 9.5667 24.3754 9.69517 24.1328 9.82364C23.8901 9.95211 23.6046 10.0092 23.2763 10.0092C22.9051 10.0092 22.5626 9.93784 22.2485 9.79509C21.9202 9.65234 21.649 9.43823 21.4206 9.15273C21.1922 8.86724 20.9924 8.51038 20.8639 8.09642C20.7212 7.66818 20.6641 7.18285 20.6641 6.61187C20.6641 6.04089 20.7355 5.55555 20.8639 5.12732C21.0067 4.69908 21.1922 4.35649 21.4491 4.071C21.6918 3.78551 21.9916 3.57139 22.3342 3.42865C22.6768 3.2859 23.0622 3.21453 23.4904 3.21453C23.7188 3.21453 23.9187 3.24308 24.1042 3.2859C24.2898 3.343 24.4468 3.4001 24.5753 3.47147C24.7323 3.54284 24.8608 3.62849 24.975 3.72841V1.23037L24.2042 1.0448V0.859231H25.8457V0.816406ZM24.9464 4.09955C24.8465 3.99963 24.7609 3.91398 24.6467 3.84261C24.5467 3.77124 24.4468 3.71414 24.3326 3.65704C24.2184 3.59994 24.1042 3.58567 23.9758 3.58567C23.8187 3.58567 23.6617 3.62849 23.519 3.71414C23.3762 3.79979 23.262 3.94253 23.1478 4.15665C23.0479 4.37077 22.9623 4.6848 22.9052 5.07022C22.8481 5.4699 22.8195 5.96951 22.8195 6.59759C22.8195 7.2114 22.8481 7.69673 22.9052 8.08214C22.9623 8.46756 23.0337 8.76732 23.1336 8.98144C23.2192 9.19556 23.3191 9.35258 23.4476 9.42395C23.5618 9.49533 23.676 9.53815 23.7902 9.53815C23.99 9.53815 24.1613 9.48105 24.3041 9.38113C24.4468 9.28121 24.561 9.15273 24.6609 9.02426C24.7751 8.86724 24.8751 8.69595 24.9607 8.51038V4.09955H24.9464Z" fill="#023047"/>
<path d="M32.0703 10.0095C30.9711 10.0095 30.1147 9.70976 29.5152 9.11023C28.9013 8.51069 28.6016 7.6685 28.6016 6.61218C28.6016 6.08402 28.6729 5.59869 28.83 5.18473C28.987 4.77077 29.2011 4.4139 29.4723 4.11414C29.7435 3.81437 30.0718 3.60026 30.4715 3.44324C30.8569 3.28622 31.2852 3.21484 31.7562 3.21484C32.2416 3.21484 32.6698 3.28622 33.041 3.41469C33.4264 3.55743 33.7404 3.743 34.0116 3.9714C34.2828 4.19979 34.4827 4.471 34.6254 4.78504C34.7682 5.09908 34.8395 5.4274 34.8395 5.78426C34.8395 5.89846 34.8396 6.01265 34.8253 6.0983C34.811 6.18395 34.7967 6.2696 34.7825 6.34097C34.7539 6.42661 34.7396 6.49799 34.7111 6.55509C34.3399 6.62646 33.9402 6.69783 33.512 6.74065C33.1551 6.79775 32.7412 6.84057 32.2701 6.86912C31.7991 6.89767 31.3137 6.92622 30.7999 6.92622C30.7999 7.45438 30.8427 7.89689 30.914 8.25376C30.9854 8.61062 31.0996 8.89611 31.2281 9.09595C31.3708 9.31007 31.5278 9.45282 31.7134 9.53846C31.899 9.62411 32.1131 9.66693 32.3272 9.66693C32.5842 9.66693 32.8268 9.62411 33.0552 9.52419C33.2836 9.42427 33.4835 9.31007 33.6405 9.15305C33.8118 8.99603 33.9402 8.81046 34.0402 8.61062C34.1401 8.41078 34.1829 8.21093 34.1829 7.99681H34.497C34.497 8.25376 34.4399 8.49642 34.3257 8.73909C34.2115 8.98175 34.0402 9.19587 33.826 9.38144C33.6119 9.56701 33.355 9.70976 33.0552 9.82395C32.7697 9.95242 32.4414 10.0095 32.0703 10.0095ZM30.7856 6.59791C31.0711 6.59791 31.328 6.59791 31.5564 6.58363C31.7848 6.56936 31.9704 6.55508 32.1274 6.54081C32.3129 6.52654 32.4557 6.49799 32.5842 6.48371C32.5984 6.39806 32.627 6.29814 32.6413 6.19822C32.6556 6.0983 32.6698 5.99838 32.6841 5.88418C32.6984 5.76998 32.6983 5.64152 32.6983 5.51304C32.6983 5.12763 32.6698 4.79932 32.6127 4.54238C32.5556 4.28543 32.4842 4.07132 32.3843 3.90002C32.2987 3.743 32.1987 3.61453 32.0703 3.55743C31.9418 3.50033 31.8419 3.45751 31.7277 3.45751C31.6135 3.45751 31.4993 3.50033 31.3851 3.58598C31.2709 3.67163 31.171 3.82865 31.0711 4.04277C30.9854 4.27116 30.8998 4.5852 30.8427 4.99916C30.7856 5.41312 30.7856 5.94128 30.7856 6.59791Z" fill="#023047"/>
<path d="M40.2323 3.64265C39.9754 3.64265 39.747 3.69975 39.5472 3.79967C39.3473 3.89959 39.176 4.02807 39.0333 4.15654C38.8763 4.31356 38.7478 4.48485 38.6193 4.67042V9.42384L39.3901 9.60941V9.79498H35.793V9.60941L36.5638 9.42384V3.77112L35.793 3.58556V3.39998H36.9492C37.249 3.39998 37.4916 3.45708 37.6915 3.55701C37.877 3.65693 38.0341 3.77112 38.1483 3.88532C38.2767 4.02806 38.3767 4.18508 38.4338 4.35638C38.5622 4.17081 38.7192 3.99952 38.9048 3.8425C39.0618 3.71403 39.2617 3.59983 39.5044 3.48563C39.747 3.37144 40.0182 3.32861 40.3465 3.32861C40.8033 3.32861 41.1459 3.44281 41.3743 3.64265C41.6027 3.85677 41.7026 4.15654 41.7026 4.54195C41.7026 4.82744 41.617 5.07011 41.4457 5.2414C41.2744 5.4127 41.0317 5.49834 40.7462 5.49834C40.6749 5.49834 40.6177 5.49834 40.5464 5.49834C40.475 5.49834 40.4322 5.48407 40.3894 5.48407C40.3323 5.46979 40.2752 5.46979 40.2323 5.44124V3.64265Z" fill="#023047"/>
<path d="M47.2267 5.31294C47.2267 5.02745 47.1981 4.77051 47.141 4.55639C47.0839 4.34227 47.0126 4.17098 46.9127 4.04251C46.827 3.89976 46.7271 3.79984 46.5986 3.74274C46.4844 3.68564 46.3702 3.64282 46.256 3.64282C46.0562 3.64282 45.8849 3.69992 45.7421 3.79984C45.5994 3.89976 45.4709 4.02823 45.3853 4.1567C45.2711 4.31372 45.1854 4.48502 45.0998 4.67059V9.42401L45.8706 9.60958V9.79515H42.2734V9.60958L43.0442 9.42401V3.77129L42.2734 3.58572V3.40015H43.4297C43.7294 3.40015 43.9721 3.45725 44.1719 3.55717C44.3575 3.6571 44.5145 3.77129 44.6287 3.88549C44.7572 4.02823 44.8571 4.18525 44.9142 4.35655C45.0284 4.14243 45.1712 3.94259 45.3425 3.77129C45.4852 3.62855 45.685 3.50008 45.9134 3.37161C46.1418 3.24313 46.4416 3.18604 46.7842 3.18604C47.1553 3.18604 47.4979 3.24313 47.7977 3.37161C48.1117 3.4858 48.3686 3.6571 48.5828 3.84267C48.7969 4.04251 48.9682 4.25663 49.0967 4.51357C49.2251 4.77051 49.2822 5.02745 49.2822 5.29867V9.40973L50.053 9.5953V9.78087H48.3829C47.6121 9.78087 47.2267 9.39546 47.2267 8.62463V5.31294Z" fill="#023047"/>
<path d="M1.36328 18.8167V18.2886H11.2841V18.8167L9.19999 19.3449V30.1222H16.6798V19.3449L14.5958 18.8167V18.2886H24.5166V18.8167L22.4325 19.3449V41.6132L24.5166 42.1413V42.6695H14.5958V42.127L16.6798 41.5989V30.9929H9.19999V41.5989L11.2841 42.127V42.6552H1.36328V42.127L3.44735 41.5989V19.3306L1.36328 18.8167Z" fill="#023047"/>
<path d="M36.8502 24.7261C38.292 24.7261 39.5767 24.9402 40.7186 25.3542C41.8606 25.7681 42.817 26.3819 43.6164 27.1813C44.4157 27.9807 45.0295 28.9513 45.4435 30.0933C45.8575 31.2353 46.0716 32.52 46.0716 33.9617C46.0716 35.4034 45.8575 36.6881 45.4435 37.8301C45.0295 38.9721 44.4157 39.9285 43.6164 40.7278C42.817 41.5272 41.8463 42.141 40.7186 42.555C39.5767 42.9689 38.292 43.183 36.8502 43.183C35.4085 43.183 34.1238 42.9689 32.9819 42.555C31.8399 42.141 30.8835 41.5272 30.0841 40.7278C29.2848 39.9285 28.671 38.9578 28.257 37.8301C27.843 36.6881 27.6289 35.4034 27.6289 33.9617C27.6289 32.52 27.843 31.2353 28.257 30.0933C28.671 28.9513 29.2848 27.9949 30.0841 27.1813C30.8835 26.3676 31.8542 25.7681 32.9819 25.3542C34.1238 24.9402 35.4085 24.7261 36.8502 24.7261ZM36.8502 42.4693C37.2499 42.4693 37.6354 42.3409 38.0351 42.0839C38.4347 41.827 38.7773 41.3845 39.0914 40.7421C39.4054 40.0998 39.6623 39.229 39.8622 38.1299C40.062 37.0307 40.1619 35.6318 40.1619 33.9332C40.1619 32.2345 40.062 30.8356 39.8622 29.7364C39.6623 28.6373 39.4054 27.7666 39.0914 27.1242C38.7773 26.4818 38.4205 26.0393 38.0351 25.7824C37.6496 25.5255 37.2499 25.397 36.8502 25.397C36.4506 25.397 36.0652 25.5255 35.6655 25.7824C35.2658 26.0393 34.9232 26.4818 34.6091 27.1242C34.2951 27.7666 34.0382 28.6373 33.8383 29.7364C33.6385 30.8356 33.5385 32.2345 33.5385 33.9332C33.5385 35.6318 33.6385 37.0307 33.8383 38.1299C34.0382 39.229 34.2951 40.0998 34.6091 40.7421C34.9232 41.3845 35.2801 41.827 35.6655 42.0839C36.0652 42.3409 36.4506 42.4693 36.8502 42.4693Z" fill="#023047"/>
<path d="M72.1502 30.4647C72.1502 29.6367 72.0788 28.923 71.9361 28.3663C71.7933 27.8096 71.622 27.3385 71.3936 26.9817C71.1652 26.6248 70.9226 26.3679 70.6656 26.1966C70.3944 26.0396 70.1375 25.9539 69.8805 25.9539C69.438 25.9539 69.0526 26.0967 68.71 26.3821C68.3674 26.6676 68.0819 26.996 67.825 27.3385C67.5538 27.7525 67.2968 28.2236 67.097 28.7232V41.5988L69.1953 42.127V42.6551H59.4601V42.127L61.5442 41.5988V30.4647C61.5442 29.6367 61.4728 28.923 61.3301 28.3663C61.1873 27.8096 61.016 27.3385 60.7876 26.9817C60.5592 26.6248 60.3166 26.3679 60.0597 26.1966C59.7884 26.0396 59.5315 25.9539 59.2745 25.9539C58.832 25.9539 58.4466 26.0967 58.104 26.3821C57.7615 26.6676 57.4759 26.996 57.219 27.3385C56.9335 27.7525 56.6909 28.2236 56.491 28.7232V41.5988L58.5751 42.127V42.6551H48.8398V42.127L50.924 41.5988V26.2965L48.8398 25.7683V25.2402H51.966C52.7796 25.2402 53.4505 25.3829 53.9644 25.6542C54.4926 25.9254 54.8923 26.2394 55.2063 26.5534C55.5489 26.9531 55.8058 27.3814 55.9771 27.8382C56.2769 27.2529 56.648 26.739 57.0905 26.268C57.4902 25.8683 57.9756 25.5114 58.5466 25.1831C59.1318 24.8548 59.8312 24.6978 60.6734 24.6978C62.0581 24.6978 63.2714 25.0118 64.2706 25.6256C65.2841 26.2394 66.055 27.0388 66.5831 28.0094C66.8829 27.4099 67.254 26.8675 67.6965 26.3679C68.0962 25.9539 68.5815 25.5685 69.1525 25.2259C69.7378 24.8833 70.4372 24.6978 71.2794 24.6978C72.2358 24.6978 73.0923 24.8548 73.8917 25.1545C74.6768 25.4543 75.3619 25.8683 75.9329 26.3964C76.5039 26.9246 76.9464 27.5241 77.2604 28.2236C77.5745 28.923 77.7315 29.6653 77.7315 30.4504V41.5845L79.8156 42.1127V42.6408H75.2906C73.2065 42.6408 72.1644 41.5988 72.1644 39.5147V30.4647H72.1502Z" fill="#023047"/>
<path d="M91.295 43.1689C88.3259 43.1689 86.0134 42.3552 84.3719 40.7137C82.7303 39.0721 81.9023 36.831 81.9023 33.9475C81.9023 32.5058 82.1165 31.2211 82.5304 30.0791C82.9444 28.9372 83.5296 27.9808 84.2719 27.1671C85.0142 26.3678 85.9135 25.754 86.9698 25.34C88.0261 24.926 89.1824 24.7119 90.4242 24.7119C91.7232 24.7119 92.8938 24.8975 93.9215 25.2686C94.9493 25.6398 95.8343 26.1394 96.548 26.7674C97.2618 27.3955 97.8185 28.1378 98.2039 28.98C98.5893 29.8222 98.7749 30.7215 98.7749 31.6779C98.7749 32.0062 98.7606 32.2917 98.7177 32.5344C98.6749 32.777 98.6464 32.9911 98.5893 33.1767C98.5179 33.4051 98.4608 33.6049 98.418 33.762C97.3902 33.9761 96.3197 34.1474 95.1777 34.2901C94.207 34.4329 93.0793 34.5471 91.8089 34.6613C90.5384 34.7612 89.1967 34.8183 87.812 34.8183C87.812 36.26 87.9119 37.4591 88.1261 38.4155C88.3402 39.3719 88.6257 40.1427 88.9968 40.7137C89.3679 41.2846 89.8104 41.6843 90.3243 41.927C90.8382 42.1697 91.3949 42.2981 91.9945 42.2981C92.6939 42.2981 93.3505 42.1697 93.9643 41.9127C94.5781 41.6558 95.1063 41.3132 95.5631 40.885C96.0199 40.4567 96.3767 39.9714 96.648 39.429C96.9192 38.8865 97.0476 38.3298 97.0476 37.7731H97.9184C97.9184 38.4726 97.7614 39.1435 97.4473 39.7858C97.1333 40.4424 96.6908 41.0134 96.1055 41.513C95.5203 42.0126 94.8351 42.4123 94.0215 42.7121C93.1935 43.0119 92.28 43.1689 91.295 43.1689ZM87.812 33.9475C88.5971 33.9475 89.2966 33.9333 89.8961 33.8904C90.4956 33.8476 91.0095 33.8191 91.4235 33.7762C91.9088 33.7334 92.3228 33.6763 92.6796 33.6049C92.7225 33.3766 92.7796 33.1196 92.8509 32.8341C92.8938 32.5772 92.9366 32.2917 92.9651 31.9777C92.9937 31.6636 93.0222 31.3353 93.0222 30.9927C93.0222 29.9507 92.9366 29.0799 92.7795 28.3662C92.6225 27.6525 92.4084 27.0815 92.1657 26.639C91.9231 26.1965 91.6376 25.8824 91.3378 25.6969C91.0238 25.5113 90.7097 25.4114 90.41 25.4114C90.1102 25.4114 89.7962 25.5256 89.4821 25.7397C89.1681 25.9681 88.8969 26.382 88.6542 26.9958C88.4115 27.6096 88.2117 28.4804 88.0404 29.5938C87.8977 30.7072 87.812 32.1632 87.812 33.9475Z" fill="#023047"/>
<path d="M115.859 42.2982V28.1807L103.383 18.3027V42.2982H115.859Z" fill="#023047"/>
<path d="M131.292 42.2982V28.1807L119.016 18.3027V42.2982H131.292Z" fill="#023047"/>
</svg>
