<svg width="103" height="104" viewBox="0 0 103 104" fill="none" xmlns="http://www.w3.org/2000/svg">
<path d="M51.454 102.446C79.3147 102.446 101.9 79.8606 101.9 51.9999C101.9 24.1392 79.3147 1.55371 51.454 1.55371C23.5933 1.55371 1.00781 24.1392 1.00781 51.9999C1.00781 79.8606 23.5933 102.446 51.454 102.446Z" fill="white"/>
<path d="M51.4529 103.16C23.2464 103.16 0.292969 80.2063 0.292969 51.9998C0.292969 23.7933 23.2464 0.839844 51.4529 0.839844C79.6594 0.839844 102.613 23.7933 102.613 51.9998C102.613 80.2063 79.6594 103.16 51.4529 103.16ZM51.4529 2.2673C24.0315 2.2673 1.72042 24.5784 1.72042 51.9998C1.72042 79.4212 24.0315 101.732 51.4529 101.732C78.8743 101.732 101.185 79.4212 101.185 51.9998C101.185 24.5784 78.8743 2.2673 51.4529 2.2673Z" fill="#023047"/>
<path d="M58.6468 6.67811C58.9894 6.70666 59.2892 6.72094 59.5318 6.72094L59.5033 6.94933C59.1036 7.00643 58.761 7.30619 58.4898 7.87717L55.0925 14.6719L54.9925 14.6576L54.9069 14.6433L52.7514 7.06353C52.6087 6.56392 52.366 6.2927 52.0234 6.24988L52.052 6.02148C52.366 6.07858 52.78 6.12141 53.2939 6.1785C53.9648 6.2356 54.4644 6.27843 54.7927 6.27843L54.7641 6.50682C54.4644 6.49254 54.2503 6.50682 54.1218 6.54964C53.9933 6.59247 53.922 6.70666 53.9077 6.84941C53.8934 6.97788 53.9219 7.16345 53.9933 7.40611L55.5778 13.2016L57.9331 8.46243C58.1329 8.07702 58.2329 7.76298 58.2614 7.53458C58.29 7.29192 58.2186 7.10635 58.0616 6.97788C57.9045 6.84941 57.6476 6.77803 57.305 6.73521L57.3336 6.50682C57.7475 6.57819 58.19 6.63529 58.6468 6.67811Z" fill="#023047"/>
<path d="M68.2408 9.6903C68.0981 9.6903 67.9839 9.7474 67.8982 9.8616C67.8126 9.97579 67.7127 10.1614 67.6128 10.4326L65.5715 15.8569C65.4716 16.1281 65.4145 16.3422 65.4145 16.485C65.4145 16.6277 65.4573 16.7419 65.5572 16.8276C65.6571 16.9132 65.8427 17.0131 66.0996 17.1273L66.014 17.3415C65.6857 17.1987 65.2289 17.0131 64.6437 16.7847C64.0156 16.5421 63.5445 16.3851 63.2305 16.2851L63.3161 16.071C63.5873 16.1567 63.7872 16.1995 63.9156 16.1995C64.0441 16.1995 64.1726 16.1424 64.2582 16.0282C64.3439 15.914 64.4438 15.7284 64.5437 15.4572L66.585 10.0329C66.6849 9.76168 66.742 9.54756 66.742 9.40481C66.742 9.26207 66.6992 9.14787 66.5993 9.06222C66.4993 8.97658 66.3138 8.87665 66.0568 8.76246L66.1425 8.54834C66.4422 8.67681 66.899 8.86238 67.5271 9.10505C68.1124 9.33344 68.5834 9.49046 68.926 9.59038L68.8404 9.8045C68.5834 9.71885 68.3836 9.67603 68.2408 9.6903Z" fill="#023047"/>
<path d="M80.9435 17.2413C80.8008 17.2128 80.658 17.2556 80.5295 17.3413C80.4011 17.4269 80.2441 17.5982 80.0728 17.8409L75.9332 23.4508L75.719 23.2937L76.2757 14.2722L72.6072 19.2398C72.4359 19.4824 72.3217 19.6823 72.2646 19.8393C72.2075 19.9963 72.236 20.1391 72.3074 20.2818C72.3788 20.4246 72.5501 20.5816 72.7928 20.7814L72.65 20.967C72.4359 20.7814 72.1218 20.5388 71.7079 20.2247C71.3367 19.9535 71.037 19.7394 70.8086 19.6109L70.9513 19.4253C71.1797 19.5824 71.3653 19.668 71.508 19.6823C71.6508 19.7108 71.7935 19.668 71.922 19.5824C72.0505 19.4824 72.2075 19.3254 72.3788 19.0828L75.7476 14.5149C75.9189 14.2722 76.0331 14.0867 76.0759 13.9582C76.1187 13.8297 76.1044 13.7013 76.0331 13.5871C75.9617 13.4729 75.819 13.3301 75.5906 13.1446L75.7333 12.959C75.9189 13.1303 76.2044 13.3587 76.5898 13.6299C76.8753 13.844 77.1179 14.0153 77.3463 14.1438L76.8895 21.7093L79.8586 17.6839C80.0299 17.4412 80.1584 17.2413 80.2012 17.0843C80.2441 16.9273 80.2298 16.7846 80.1584 16.6418C80.087 16.4991 79.9157 16.3278 79.6731 16.1422L79.8158 15.9566C80.0299 16.1422 80.344 16.3849 80.7579 16.6989C81.1291 16.9701 81.4288 17.1842 81.6572 17.3127L81.5145 17.4983C81.2718 17.3555 81.0863 17.2556 80.9435 17.2413Z" fill="#023047"/>
<path d="M85.7238 23.6789C86.0949 23.4077 86.4804 23.108 86.8943 22.7368C87.2512 23.2792 87.8793 24.1785 88.7786 25.449C89.6779 26.7051 90.3202 27.5902 90.7056 28.104C90.2203 28.3895 89.8063 28.6465 89.4352 28.9034C89.1212 29.1318 88.8642 29.3317 88.6786 29.4887L88.5216 29.2746C88.9784 28.8749 89.2924 28.5466 89.478 28.3039C89.6636 28.0612 89.735 27.8043 89.7207 27.5331C89.7064 27.2618 89.5351 26.9335 89.2639 26.5338L88.8928 26.02L83.4827 29.8741C83.2258 30.0597 83.0402 30.2309 82.9546 30.3594C82.8689 30.4879 82.8404 30.6449 82.8975 30.8162C82.9403 30.9732 83.0687 31.2016 83.2543 31.4871L83.0687 31.6299C82.8546 31.2873 82.5263 30.8019 82.0981 30.2167C81.6413 29.5743 81.2987 29.1175 81.0703 28.832L81.2559 28.6893C81.47 28.9605 81.6413 29.1461 81.784 29.246C81.9268 29.3459 82.0695 29.3745 82.2266 29.3317C82.3836 29.2888 82.5977 29.1746 82.8546 28.9891L88.2647 25.1349L87.8935 24.6211C87.608 24.2214 87.3511 23.9787 87.1084 23.8645C86.8658 23.7503 86.5946 23.736 86.3091 23.836C86.0236 23.9359 85.6096 24.1214 85.0815 24.4212L84.9244 24.2071C85.1386 24.0929 85.3955 23.9216 85.7238 23.6789Z" fill="#023047"/>
<path d="M88.4676 43.4921L88.2392 43.5635C88.1535 43.2495 88.0393 42.8498 87.868 42.3644C87.6539 41.7364 87.4826 41.2653 87.3542 40.9513L87.5825 40.8799C87.6825 41.1511 87.7967 41.351 87.8823 41.4509C87.9822 41.5508 88.1107 41.5793 88.2534 41.5222C88.3819 41.4794 88.5389 41.3795 88.7245 41.2225L90.309 39.9235L89.4097 37.2542L88.0822 37.1971C87.6539 37.1685 87.3256 37.1971 87.0972 37.2827C86.8688 37.3684 86.7261 37.4968 86.669 37.6824C86.6261 37.868 86.6547 38.1392 86.7546 38.4675L86.5262 38.5389C86.412 38.1106 86.2693 37.6824 86.1265 37.2542C86.0123 36.9258 85.9124 36.6546 85.8125 36.4405L86.0409 36.3691C86.2407 36.7117 86.669 36.8973 87.2971 36.9116L94.8911 37.2542L94.9482 37.4255L88.8958 42.4644C88.5247 42.8212 88.3819 43.1495 88.4676 43.4921ZM93.4208 37.4255L89.6809 37.2684L90.5231 39.7808L93.4208 37.4255Z" fill="#023047"/>
<path d="M89.5091 54.4125C89.6518 54.3554 89.7232 54.284 89.7232 54.1841C89.7232 54.127 89.7089 54.0842 89.6804 54.0413C89.6518 53.9985 89.5947 53.9129 89.5091 53.7987C89.295 53.5275 89.1379 53.242 89.0237 52.9565C88.9096 52.671 88.8525 52.3427 88.8525 51.9858C88.8382 51.1864 88.9952 50.5013 89.3092 49.916C89.6376 49.3308 90.0943 48.8882 90.7224 48.5742C91.3362 48.2602 92.0785 48.1031 92.9493 48.0889C93.8485 48.0746 94.6336 48.2173 95.3045 48.5314C95.9754 48.8454 96.5036 49.2737 96.8747 49.8446C97.2459 50.4156 97.4457 51.058 97.4457 51.7717C97.4457 52.0857 97.4172 52.3712 97.3601 52.6139C97.303 52.8566 97.2173 53.0707 97.1174 53.2562C97.0175 53.4418 96.889 53.6559 96.7177 53.8843C96.6464 53.9842 96.6035 54.0699 96.6035 54.127C96.6035 54.2697 96.8462 54.3697 97.3173 54.4125V54.6837C96.8176 54.6552 95.9183 54.6552 94.6336 54.6837V54.4125C95.0476 54.3411 95.3902 54.2555 95.6614 54.1698C95.9326 54.0842 96.161 53.9557 96.3609 53.7987C96.6321 53.5703 96.8605 53.2705 97.0175 52.8994C97.1745 52.5282 97.2459 52.1571 97.2459 51.7574C97.2316 51.2435 97.0603 50.801 96.7177 50.4156C96.3751 50.0302 95.8898 49.7447 95.276 49.5306C94.6479 49.3308 93.9342 49.2308 93.1063 49.2451C92.1641 49.2594 91.4076 49.3736 90.8081 49.5877C90.2085 49.8018 89.7803 50.1159 89.4948 50.5298C89.2093 50.9438 89.0808 51.4719 89.0951 52.1143C89.1094 52.5853 89.2379 52.985 89.4805 53.3276C89.5805 53.4704 89.6661 53.556 89.766 53.5988C89.8517 53.6417 89.9801 53.6559 90.1372 53.6559L91.2649 53.6417C91.5932 53.6417 91.8216 53.5988 91.9786 53.5417C92.1213 53.4846 92.2355 53.3704 92.2783 53.1991C92.3354 53.0421 92.364 52.7852 92.364 52.4426H92.5924C92.5781 52.828 92.5638 53.3704 92.5781 54.0984C92.5924 54.6409 92.6067 55.0548 92.6352 55.3118H92.4068C92.3925 55.1262 92.3497 54.9977 92.3069 54.9264C92.2641 54.855 92.1641 54.7979 92.0357 54.7693C91.9072 54.7408 91.6931 54.7265 91.3933 54.7408L89.0808 54.7836V54.5552C89.2093 54.4981 89.3663 54.4696 89.5091 54.4125Z" fill="#023047"/>
<path d="M87.8076 66.5596C87.3936 66.4311 86.9083 66.3026 86.3516 66.1884C86.5371 65.6888 86.8083 64.8466 87.1938 63.6475C87.6505 62.2201 87.9789 61.1352 88.1787 60.4072L88.4071 60.4786C88.3357 60.7498 88.3072 60.9497 88.3072 61.0924C88.3214 61.2351 88.3785 61.3351 88.4927 61.4207C88.6069 61.5064 88.8068 61.592 89.078 61.6777L94.6022 63.4192C94.8877 63.5048 95.0876 63.5476 95.2303 63.5476C95.3731 63.5476 95.4873 63.4905 95.5729 63.3763C95.6586 63.2621 95.7442 63.0766 95.8441 62.8196L96.0725 62.891C95.8156 63.619 95.473 64.6896 95.0162 66.117C94.6736 67.2019 94.431 67.987 94.3168 68.4581C93.8457 68.2582 93.4175 68.0869 93.0178 67.9727C92.7323 67.8871 92.4896 67.8157 92.3183 67.7872L92.404 67.5302C92.9036 67.6301 93.289 67.673 93.5459 67.673C93.8029 67.673 94.017 67.5873 94.1883 67.416C94.3596 67.259 94.5023 66.9735 94.6308 66.5881L94.9163 65.6603C95.0019 65.389 95.0448 65.1892 95.0305 65.0607C95.0162 64.9323 94.9734 64.8181 94.8592 64.7324C94.745 64.6468 94.5594 64.5611 94.2739 64.4755L91.6474 63.6475L91.419 64.3898C91.3048 64.761 91.3334 65.0465 91.5189 65.2463C91.7045 65.4461 91.9044 65.5889 92.1327 65.6888C92.3611 65.7887 92.5039 65.8601 92.561 65.8886L92.4753 66.1456C92.1185 66.0028 91.7759 65.8744 91.4333 65.7745L90.9051 65.6174C90.534 65.5032 89.9916 65.3462 89.3064 65.1892L89.392 64.9323C89.4491 64.9465 89.6347 64.9751 89.9487 65.0465C90.2628 65.1035 90.534 65.075 90.7481 64.9608C90.9622 64.8466 91.105 64.6325 91.2049 64.3327L91.4333 63.5904L88.7497 62.7482C88.4642 62.6626 88.2643 62.6198 88.1216 62.6198C87.9789 62.6198 87.8647 62.6769 87.7933 62.7911C87.7076 62.9053 87.622 63.0908 87.5363 63.3621L87.2794 64.1757C87.1367 64.6468 87.0796 65.0179 87.1367 65.2891C87.1795 65.5746 87.3222 65.803 87.5649 66.0028C87.8076 66.1884 88.1787 66.4025 88.6783 66.6309L88.5927 66.8879C88.4214 66.7594 88.1502 66.6737 87.8076 66.5596Z" fill="#023047"/>
<path d="M83.7395 84.0747C83.7966 83.9463 83.7823 83.8178 83.7252 83.6893C83.6681 83.5609 83.5253 83.4038 83.3112 83.1897L79.1145 79.1786C78.9004 78.9787 78.7291 78.8503 78.6006 78.7932C78.4722 78.7361 78.3437 78.7361 78.2152 78.7932C78.0868 78.8503 77.9297 78.9787 77.7299 79.1786L77.5586 79.0216C77.8298 78.7789 78.1724 78.422 78.6149 77.9795C79.0717 77.4942 79.4143 77.123 79.6284 76.8804L79.7997 77.0374C79.6141 77.2515 79.4999 77.4228 79.4428 77.537C79.3857 77.6655 79.4 77.7939 79.4571 77.9224C79.5142 78.0509 79.6569 78.2079 79.8711 78.422L84.0678 82.4332C84.2819 82.633 84.4532 82.7615 84.5817 82.8186C84.7101 82.8757 84.8386 82.8757 84.9671 82.8186C85.0955 82.7615 85.2526 82.633 85.4524 82.4332L85.6237 82.5902C85.381 82.8043 85.0242 83.1612 84.5674 83.6465C84.1249 84.1033 83.7966 84.4744 83.5682 84.7456L83.3969 84.5886C83.5682 84.3745 83.6824 84.2032 83.7395 84.0747Z" fill="#023047"/>
<path d="M71.8519 92.7823C71.9375 92.6539 71.9518 92.5254 71.9232 92.3684C71.8947 92.2113 71.7948 92.0115 71.6377 91.7403L68.0977 85.7307L68.326 85.588L76.4054 89.6276L73.2793 84.3175C73.1223 84.0606 72.9938 83.875 72.8654 83.7751C72.7369 83.6752 72.5941 83.6323 72.4371 83.6466C72.2801 83.6609 72.066 83.7465 71.7948 83.8893L71.6663 83.6894C71.9232 83.5752 72.2658 83.3754 72.7083 83.1185C73.108 82.8758 73.4078 82.6902 73.6219 82.5332L73.7361 82.733C73.5077 82.8758 73.3507 83.0185 73.2793 83.147C73.1937 83.2755 73.1794 83.404 73.2079 83.561C73.2365 83.718 73.3364 83.9178 73.4934 84.189L76.3769 89.0852C76.5196 89.3422 76.6481 89.5135 76.7623 89.5991C76.8765 89.6847 76.9907 89.7276 77.1334 89.699C77.2619 89.6705 77.4618 89.5991 77.7044 89.4706L77.8186 89.6705C77.5902 89.7847 77.2762 89.956 76.8622 90.1986C76.5625 90.3699 76.3055 90.5412 76.0914 90.684L69.311 87.3009L71.8519 91.6118C72.0089 91.8687 72.1373 92.0543 72.2658 92.1542C72.38 92.2542 72.5228 92.297 72.6941 92.2827C72.8654 92.2684 73.0795 92.1828 73.3507 92.04L73.4649 92.2399C73.2079 92.3541 72.8653 92.5539 72.4228 92.8109C72.0232 93.0535 71.7234 93.2391 71.5093 93.3961L71.3951 93.1963C71.6092 93.0393 71.7662 92.8965 71.8519 92.7823Z" fill="#023047"/>
<path d="M63.9975 94.652C64.0974 95.0945 64.2259 95.5799 64.3972 96.0937C63.7548 96.2079 62.6842 96.4363 61.1711 96.7504C59.658 97.0787 58.6017 97.3213 57.9736 97.4784C57.9022 96.9216 57.8309 96.4363 57.731 95.9938C57.6453 95.6084 57.5739 95.2944 57.4883 95.066L57.7452 95.0089C57.9308 95.5941 58.1021 96.0081 58.2591 96.2793C58.4161 96.5505 58.616 96.7218 58.8729 96.8075C59.1299 96.8931 59.501 96.8788 59.9721 96.7789L60.5859 96.6504L59.1869 90.1555C59.1156 89.8415 59.0442 89.6131 58.9443 89.4846C58.8444 89.3561 58.7302 89.2705 58.5589 89.2562C58.3876 89.2277 58.1306 89.2562 57.788 89.3133L57.7452 89.0849C58.1449 89.0278 58.7159 88.9136 59.4296 88.7566C60.1862 88.5853 60.7572 88.4569 61.114 88.3569L61.1568 88.5853C60.8142 88.671 60.5859 88.7566 60.4431 88.8423C60.3004 88.9279 60.2147 89.0564 60.1862 89.2134C60.1576 89.3704 60.1719 89.6131 60.2433 89.9271L61.6422 96.422L62.256 96.2936C62.727 96.1937 63.0696 96.0509 63.2695 95.8653C63.4693 95.6798 63.5835 95.4371 63.6121 95.1373C63.6406 94.8376 63.6263 94.3808 63.555 93.7813L63.8119 93.7242C63.8547 93.9525 63.9118 94.2666 63.9975 94.652Z" fill="#023047"/>
<path d="M45.0585 90.6409C45.1013 90.1984 45.1156 89.6988 45.1156 89.1421C45.6437 89.2135 46.5288 89.2991 47.7849 89.4133C49.2695 89.5418 50.3972 89.6417 51.168 89.6845L51.1537 89.9129C50.8682 89.8986 50.6684 89.9129 50.5399 89.9557C50.4114 89.9986 50.3115 90.0699 50.2544 90.1984C50.1973 90.3269 50.1545 90.541 50.126 90.8265L49.6121 96.6077C49.5835 96.8932 49.5978 97.1073 49.6263 97.25C49.6549 97.3928 49.7405 97.4927 49.869 97.5498C49.9975 97.6069 50.1973 97.664 50.4685 97.6925L50.4543 97.9209C49.6977 97.8353 48.57 97.7211 47.0855 97.5926C45.9435 97.4927 45.1299 97.4356 44.6445 97.407C44.7445 96.9074 44.8158 96.4507 44.8444 96.0367C44.8729 95.7369 44.8872 95.4943 44.8729 95.3087L45.1441 95.3372C45.1584 95.8511 45.187 96.2223 45.2583 96.4792C45.3154 96.7361 45.4439 96.9217 45.6437 97.0502C45.8293 97.1787 46.1434 97.2643 46.543 97.2928L47.5137 97.3785C47.7992 97.407 47.999 97.3928 48.1275 97.3642C48.256 97.3357 48.3559 97.25 48.413 97.1215C48.4701 96.9931 48.5129 96.779 48.5415 96.4935L48.7841 93.7528L48.0133 93.6814C47.6279 93.6528 47.3567 93.7385 47.1997 93.9669C47.0569 94.1953 46.9427 94.4237 46.8999 94.6663C46.8428 94.909 46.8143 95.066 46.8 95.1374L46.5288 95.1088C46.5859 94.7234 46.6287 94.3666 46.6715 94.0097L46.7143 93.453C46.7429 93.0533 46.7714 92.5109 46.8 91.7972L47.0712 91.8257C47.0712 91.8828 47.0855 92.0684 47.0855 92.3967C47.0998 92.725 47.1711 92.9819 47.3424 93.1532C47.4994 93.3388 47.7421 93.4387 48.0561 93.4673L48.827 93.5386L49.0696 90.7408C49.0982 90.4553 49.0839 90.2412 49.0554 90.0985C49.0268 89.97 48.9412 89.8701 48.8127 89.813C48.6842 89.7559 48.4844 89.7131 48.2132 89.6845L47.3567 89.6131C46.8714 89.5703 46.5002 89.5989 46.229 89.7131C45.9721 89.813 45.7722 90.0128 45.6295 90.2841C45.4867 90.5553 45.3725 90.9692 45.2583 91.5117L44.9871 91.4831C44.9871 91.269 45.0157 90.9835 45.0585 90.6409Z" fill="#023047"/>
<path d="M33.8235 85.3449C34.0376 85.3021 34.2803 85.3449 34.5372 85.4591C34.837 85.5876 35.0368 85.7731 35.151 86.0158C35.2652 86.2727 35.2795 86.6296 35.2081 87.1007L34.994 88.2712C34.9226 88.6851 34.8798 88.9992 34.8655 89.2419C34.8513 89.4702 34.9084 89.6844 35.0083 89.8699C35.1082 90.0555 35.2938 90.1982 35.565 90.3124L36.5927 90.7407L37.6348 88.2569C37.749 87.9857 37.8061 87.7858 37.8204 87.6431C37.8346 87.5004 37.7775 87.3862 37.6776 87.2862C37.5777 87.1863 37.4064 87.0864 37.1495 86.9722L37.2351 86.7581C37.5634 86.9151 38.0059 87.1149 38.5912 87.3576C39.205 87.6146 39.676 87.8001 39.9901 87.9L39.9044 88.1142C39.6332 88.0142 39.4334 87.9714 39.3049 87.9571C39.1622 87.9571 39.048 88 38.9623 88.1142C38.8624 88.2141 38.7625 88.3997 38.6483 88.6709L36.4072 94.0238C36.293 94.295 36.2359 94.4949 36.2216 94.6376C36.2073 94.7804 36.2644 94.8946 36.3644 94.9945C36.4643 95.0944 36.6356 95.1943 36.8925 95.3228L36.8069 95.5369C36.5071 95.3942 36.0789 95.1943 35.5079 94.9517C35.2224 94.8375 34.9226 94.709 34.58 94.5663C34.2374 94.4235 34.0091 94.3379 33.8806 94.2808C33.3239 94.0381 32.8814 93.7669 32.5531 93.4386C32.2247 93.1103 32.0392 92.7677 31.9535 92.3965C31.8679 92.0254 31.9107 91.6685 32.0677 91.3117C32.1819 91.0262 32.3675 90.7692 32.6244 90.5408C32.8814 90.3124 33.2097 90.1411 33.6094 90.0555C34.0091 89.9699 34.4944 89.9841 35.0225 90.1126L34.8941 90.0412C34.5943 89.8557 34.3659 89.6701 34.2232 89.4702C34.0804 89.2847 33.9805 89.0706 33.952 88.8422C33.9091 88.6138 33.9234 88.3283 33.9805 87.9857L34.1804 86.7724C34.2232 86.5297 34.2517 86.3441 34.2517 86.2014C34.2517 86.0586 34.2374 85.9444 34.1946 85.8588C34.1518 85.7731 34.0804 85.7018 33.9805 85.6732C33.8663 85.6161 33.7521 85.6161 33.6522 85.6447C33.5523 85.6732 33.4095 85.7446 33.224 85.8445L33.1098 85.6589C33.3667 85.5019 33.6094 85.3877 33.8235 85.3449ZM34.5372 90.4266C34.1946 90.4695 33.9234 90.5979 33.7093 90.812C33.4952 91.0262 33.3096 91.3117 33.1526 91.6828C32.9099 92.2681 32.8528 92.7819 33.0098 93.1959C33.1669 93.6099 33.5523 93.9524 34.1946 94.2237C34.423 94.3236 34.5943 94.3664 34.7371 94.3521C34.8655 94.3521 34.9797 94.295 35.0796 94.1808C35.1796 94.0666 35.2795 93.8811 35.3794 93.6241L36.4928 90.9691L35.7648 90.6693C35.2938 90.4695 34.8798 90.3838 34.5372 90.4266Z" fill="#023047"/>
<path d="M22.6891 87.2866C22.8176 87.3294 22.946 87.3009 23.0602 87.2295C23.1744 87.1581 23.3314 87.0011 23.517 86.7727L27.0999 82.2049C27.2855 81.9765 27.3997 81.7909 27.4425 81.6624C27.4853 81.5339 27.4711 81.4055 27.3997 81.2913C27.3283 81.1771 27.1856 81.0201 26.9714 80.8345L27.1142 80.6489C27.3854 80.8916 27.7565 81.2056 28.2562 81.591C28.7843 82.005 29.184 82.3048 29.4552 82.4903L29.3125 82.6759C29.0841 82.5046 28.8985 82.4047 28.77 82.3761C28.6416 82.3333 28.5131 82.3476 28.3989 82.4332C28.2847 82.5046 28.1277 82.6616 27.9421 82.89L24.3592 87.4579C24.1736 87.6863 24.0594 87.8718 24.0166 88.0003C23.9738 88.1288 23.9881 88.2573 24.0594 88.3714C24.1308 88.4856 24.2736 88.6427 24.4877 88.8282L24.3449 89.0138C24.1023 88.7997 23.7169 88.4856 23.1887 88.0574C22.6891 87.672 22.2894 87.3722 22.0039 87.1724L22.1467 86.9868C22.3893 87.1438 22.5606 87.2438 22.6891 87.2866Z" fill="#023047"/>
<path d="M13.4693 77.123C13.4122 76.4807 13.555 75.8383 13.8833 75.2245C14.2259 74.5965 14.7397 74.0398 15.4535 73.5116C16.1529 73.012 16.8524 72.6837 17.5804 72.5552C18.3084 72.4267 18.9793 72.4696 19.6074 72.7122C20.2354 72.9549 20.7636 73.3689 21.1776 73.9541C21.6201 74.5536 21.8627 75.1817 21.9198 75.8241C21.9769 76.4664 21.8342 77.1088 21.5059 77.7226C21.1633 78.3507 20.6494 78.9074 19.9357 79.4355C19.2362 79.9351 18.5368 80.2634 17.8088 80.3919C17.095 80.5204 16.4099 80.4776 15.7818 80.2349C15.1537 79.9922 14.6255 79.5783 14.2116 79.0073C13.7691 78.3935 13.5264 77.7654 13.4693 77.123ZM15.6105 79.6639C16.1101 79.7638 16.6811 79.721 17.3092 79.5212C17.9372 79.3213 18.5653 78.993 19.2219 78.5077C19.8786 78.0366 20.3925 77.5227 20.7493 76.9803C21.1205 76.4379 21.3203 75.8954 21.3489 75.3816C21.3917 74.8677 21.2632 74.4109 20.992 74.0255C20.6922 73.6258 20.3068 73.3689 19.7929 73.2689C19.2933 73.169 18.7223 73.2118 18.0943 73.4117C17.4662 73.6115 16.8381 73.9398 16.1815 74.4109C15.5248 74.882 15.011 75.3958 14.6541 75.9525C14.283 76.495 14.0831 77.0231 14.0403 77.5513C13.9975 78.0652 14.1259 78.522 14.3972 78.9074C14.6969 79.3071 15.0966 79.564 15.6105 79.6639Z" fill="#023047"/>
<path d="M14.5665 59.9363C14.7378 60.0648 14.8662 60.2789 14.9519 60.5644C15.0518 60.8642 15.0375 61.1497 14.9233 61.3923C14.8091 61.6493 14.5379 61.8919 14.124 62.1346L13.0819 62.7199C12.7251 62.934 12.4538 63.1053 12.2683 63.248C12.0827 63.3908 11.9542 63.5621 11.8829 63.7619C11.8115 63.9618 11.8115 64.1902 11.8971 64.4756L12.2254 65.5462L14.7949 64.7469C15.0803 64.6612 15.2659 64.5756 15.3801 64.4899C15.4943 64.4043 15.5514 64.2901 15.5657 64.1616C15.58 64.0331 15.5371 63.819 15.4658 63.5478L15.6942 63.4764C15.7798 63.819 15.9083 64.3043 16.1081 64.9039C16.308 65.5462 16.465 66.0173 16.5792 66.3171L16.3508 66.3884C16.2509 66.1172 16.1652 65.9316 16.0796 65.8317C15.9939 65.7318 15.8797 65.6604 15.737 65.6604C15.5942 65.6604 15.3801 65.689 15.1089 65.7889L9.57038 67.5018C9.28489 67.5875 9.09932 67.6731 8.98512 67.7588C8.87093 67.8444 8.81383 67.9586 8.79955 68.0871C8.78528 68.2298 8.8281 68.4297 8.89948 68.7009L8.67108 68.7723C8.59971 68.4582 8.47124 68.0015 8.28567 67.4019C8.20002 67.1164 8.08583 66.7881 7.97163 66.4455C7.85744 66.1029 7.77179 65.8603 7.72896 65.7318C7.5434 65.1465 7.4863 64.6327 7.52912 64.1759C7.57194 63.7191 7.71469 63.348 7.94308 63.0482C8.17148 62.7484 8.47124 62.5486 8.84238 62.4344C9.12787 62.3487 9.44191 62.3202 9.7845 62.363C10.1271 62.4058 10.4554 62.5486 10.798 62.8055C11.1406 63.0625 11.4261 63.4336 11.6687 63.9332L11.6545 63.7905C11.6116 63.4336 11.5974 63.1481 11.6545 62.9054C11.7116 62.6628 11.8115 62.4629 11.9542 62.2916C12.1112 62.1203 12.3396 61.9348 12.6394 61.7635L13.6957 61.1354C13.9098 61.0212 14.0811 60.907 14.1811 60.8214C14.281 60.7357 14.3666 60.6501 14.4094 60.5644C14.4523 60.4788 14.4523 60.3788 14.4237 60.2789C14.3809 60.1505 14.3238 60.0648 14.2382 60.0077C14.1525 59.9506 14.0098 59.8792 13.8099 59.8079L13.8813 59.5938C14.1668 59.6937 14.4094 59.8079 14.5665 59.9363ZM11.1549 63.7619C10.9122 63.5335 10.6267 63.4051 10.3269 63.3765C10.0272 63.348 9.68458 63.3908 9.29916 63.5192C8.68536 63.7048 8.2714 64.0046 8.043 64.39C7.81461 64.7754 7.81461 65.3036 8.01445 65.9459C8.08583 66.1743 8.17147 66.3456 8.25712 66.4455C8.34277 66.5454 8.47124 66.6025 8.61399 66.6025C8.75673 66.6025 8.97085 66.5597 9.22779 66.4884L11.9685 65.6319L11.7401 64.8753C11.5974 64.3614 11.3975 63.9903 11.1549 63.7619Z" fill="#023047"/>
<path d="M13.4675 46.3898C14.01 46.1471 14.3383 45.6903 14.481 45.0051C14.5239 44.7482 14.5239 44.4912 14.4525 44.2486C14.3811 44.0059 14.2526 43.7918 14.0528 43.6062C13.853 43.4207 13.5817 43.2922 13.2249 43.2351C12.9251 43.178 12.6539 43.2065 12.3969 43.3065C12.14 43.4064 11.8831 43.5634 11.6404 43.7775C11.3977 43.9916 11.1122 44.2771 10.7982 44.634C10.4413 45.0337 10.1273 45.362 9.85608 45.5904C9.58486 45.8331 9.2851 46.0043 8.95679 46.1328C8.62847 46.2613 8.25733 46.2756 7.84337 46.2042C7.41514 46.1185 7.05827 45.9615 6.80133 45.7046C6.54439 45.4476 6.35882 45.1479 6.27317 44.791C6.18753 44.4341 6.18753 44.063 6.2589 43.6633C6.30172 43.4207 6.35882 43.2351 6.43019 43.0638C6.50157 42.8925 6.57294 42.764 6.65859 42.6641C6.74423 42.5642 6.82988 42.45 6.94408 42.3358C7.08682 42.1788 7.15819 42.0646 7.18674 41.9789C7.20102 41.9076 7.17247 41.8505 7.1011 41.7934C7.02972 41.7363 6.90125 41.6934 6.72996 41.6363L6.77278 41.3794C7.21529 41.4936 7.98612 41.6649 9.11381 41.879L9.07098 42.1359C8.67129 42.0931 8.30016 42.1074 7.92902 42.193C7.57216 42.2644 7.25812 42.4214 7.00117 42.6641C6.74423 42.8925 6.57294 43.2208 6.50157 43.6205C6.44447 43.8917 6.45874 44.1344 6.53011 44.377C6.60149 44.6197 6.72996 44.8053 6.90125 44.9623C7.08682 45.1193 7.30094 45.2192 7.55788 45.2763C7.97184 45.3477 8.32871 45.2906 8.62847 45.0908C8.92824 44.8909 9.21373 44.634 9.48494 44.3342C9.75616 44.0345 9.92745 43.8346 10.0274 43.7347C10.4271 43.3065 10.7554 42.9781 11.0266 42.7355C11.2978 42.4928 11.5976 42.3215 11.9259 42.2073C12.2542 42.0931 12.6111 42.0788 12.9965 42.1502C13.4675 42.2359 13.853 42.4214 14.1384 42.6927C14.4239 42.9781 14.6095 43.3065 14.7094 43.7061C14.8093 44.1058 14.8093 44.5341 14.7237 44.9909C14.6523 45.362 14.5667 45.6475 14.4382 45.8759C14.324 46.1043 14.167 46.3041 13.9957 46.4897C13.853 46.6467 13.7816 46.7609 13.753 46.8465C13.7388 46.9179 13.7673 46.975 13.8387 47.0321C13.91 47.0892 14.0385 47.1463 14.2098 47.1891L14.167 47.4461C13.753 47.3319 12.8395 47.1463 11.4263 46.8894L11.4691 46.6324C12.2685 46.7038 12.9251 46.6324 13.4675 46.3898Z" fill="#023047"/>
<path d="M10.6399 34.3564C10.2402 34.1423 9.78341 33.9424 9.26953 33.7426C9.58357 33.1859 10.1117 32.2152 10.8255 30.8306C11.5392 29.4602 12.0388 28.4896 12.31 27.9043C12.7811 28.2041 13.2093 28.461 13.5947 28.6608C13.9373 28.8464 14.2371 28.9749 14.4655 29.0748L14.337 29.3175C13.766 29.0891 13.3378 28.9463 13.038 28.9035C12.7382 28.8464 12.467 28.9035 12.2386 29.0463C12.0102 29.189 11.7818 29.4745 11.5677 29.9027L11.2822 30.4737L17.1776 33.5427C17.4631 33.6998 17.6915 33.7711 17.8485 33.7854C18.0055 33.7997 18.1483 33.7569 18.2768 33.6427C18.4052 33.5285 18.548 33.3143 18.7193 33.0146L18.9334 33.1288C18.7193 33.4856 18.4481 33.9853 18.1055 34.6419C17.7486 35.3271 17.4917 35.8552 17.3346 36.1835L17.1205 36.0693C17.2633 35.7553 17.3632 35.5126 17.3775 35.3556C17.406 35.1843 17.3632 35.0416 17.249 34.9131C17.1348 34.7846 16.9492 34.6562 16.6637 34.4991L10.7684 31.4158L10.4686 31.9725C10.2402 32.4008 10.1403 32.7434 10.1546 33.0146C10.1688 33.2858 10.283 33.5285 10.4971 33.7426C10.7113 33.9567 11.0681 34.2422 11.582 34.5705L11.4535 34.8132C11.268 34.699 10.9825 34.542 10.6399 34.3564Z" fill="#023047"/>
<path d="M20.7173 17.9549C20.96 17.7122 21.1598 17.4838 21.3026 17.3125L21.4739 17.4838C21.3882 17.6123 21.3454 17.7978 21.3597 18.012C21.3739 18.2261 21.431 18.5258 21.5452 18.8827L22.8442 22.7511L24.3573 24.2499C24.5714 24.4498 24.7284 24.5925 24.8569 24.6496C24.9854 24.7067 25.1139 24.7067 25.2423 24.6496C25.3708 24.5925 25.5278 24.464 25.7419 24.2785L25.9132 24.4498C25.642 24.6924 25.2852 25.035 24.8426 25.4775C24.3716 25.9486 24.029 26.3197 23.8149 26.5624L23.6436 26.3911C23.8292 26.177 23.9576 26.02 24.0147 25.8915C24.0718 25.763 24.0718 25.6346 24.0004 25.5061C23.9434 25.3776 23.8006 25.2063 23.6008 25.0065L22.3446 23.7646L17.5769 22.3657C17.2914 22.28 17.0773 22.2515 16.9346 22.2658C16.7918 22.28 16.6919 22.3229 16.6205 22.3942L16.4492 22.2229C16.6776 22.0231 16.9346 21.7947 17.1915 21.5235C17.7197 20.9811 18.1051 20.5956 18.3192 20.3387L18.4905 20.51C18.1051 20.8954 18.0194 21.1952 18.2335 21.4093C18.3192 21.4949 18.4334 21.552 18.6047 21.6091L22.6158 22.851L21.5595 19.6963C21.4025 19.2396 21.2455 18.9255 21.0742 18.7685C20.9171 18.6115 20.7459 18.5687 20.5603 18.6258C20.3747 18.6829 20.1606 18.8256 19.9037 19.0683L19.7324 18.897C20.075 18.5829 20.389 18.2689 20.7173 17.9549Z" fill="#023047"/>
<path d="M29.3557 12.2023C29.2701 12.3023 29.2273 12.4307 29.2558 12.5735C29.2844 12.7162 29.3557 12.9161 29.4985 13.173L32.2535 18.2833C32.3962 18.5402 32.5104 18.7115 32.6246 18.8114C32.7245 18.9114 32.853 18.9399 32.9815 18.9256C33.1099 18.9114 33.3098 18.8257 33.5524 18.6972L34.309 18.2833C34.7372 18.0549 35.037 17.8122 35.194 17.5696C35.351 17.3269 35.4081 17.0557 35.3653 16.7274C35.3225 16.399 35.194 15.9851 34.9656 15.4426L35.2083 15.3142C35.3082 15.5426 35.451 15.8281 35.6365 16.1706C35.8506 16.5561 36.1076 16.9843 36.4216 17.4554C35.9506 17.6838 35.1512 18.0977 34.0521 18.6972C32.7388 19.411 31.7396 19.9534 31.083 20.3388L30.9688 20.139C31.2114 19.9962 31.3827 19.8678 31.4684 19.7678C31.554 19.6679 31.5968 19.5394 31.5683 19.3967C31.5397 19.2539 31.4684 19.0541 31.3256 18.7972L28.5421 13.6869C28.3993 13.4299 28.2851 13.2586 28.1709 13.1587C28.071 13.0588 27.9426 13.0303 27.8141 13.0445C27.6713 13.0588 27.4858 13.1302 27.2288 13.2586L27.1289 13.0445C27.4287 12.9161 27.8712 12.6877 28.4564 12.3593C29.0131 12.0596 29.4414 11.8169 29.7411 11.6313L29.8553 11.8312C29.6127 11.9739 29.4557 12.1024 29.3557 12.2023Z" fill="#023047"/>
<path d="M46.7426 13.1159C46.8282 13.5442 46.9567 14.0295 47.1137 14.5719C46.5856 14.6576 45.7148 14.8146 44.4872 15.0573C43.0169 15.3428 41.9178 15.5712 41.1612 15.7425L41.1184 15.5141C41.3896 15.4427 41.5895 15.3856 41.7037 15.2999C41.8179 15.2286 41.8892 15.1144 41.9035 14.9859C41.9178 14.8432 41.9035 14.629 41.8464 14.3436L40.733 8.64802C40.6759 8.36253 40.6188 8.16268 40.5332 8.03421C40.4475 7.90574 40.3619 7.83437 40.2191 7.82009C40.0907 7.79154 39.8765 7.80582 39.6053 7.84864L39.5625 7.62025C40.3191 7.49178 41.4325 7.29194 42.8885 7.00644C44.0162 6.77805 44.8155 6.62103 45.2723 6.50684C45.3151 7.02072 45.3865 7.4775 45.4579 7.87719C45.515 8.17696 45.5721 8.40535 45.6292 8.57664L45.3722 8.63374C45.2152 8.14841 45.0725 7.79154 44.944 7.56315C44.8155 7.33476 44.63 7.19201 44.4158 7.12064C44.1874 7.04927 43.8877 7.04927 43.4737 7.13492L42.5173 7.32048C42.2461 7.37758 42.0463 7.43468 41.9321 7.50605C41.8179 7.57743 41.7465 7.67735 41.718 7.82009C41.7037 7.96284 41.718 8.17696 41.7751 8.46245L42.3032 11.1746L43.0598 11.0176C43.4452 10.9462 43.6736 10.7749 43.7592 10.518C43.8449 10.261 43.8734 10.0184 43.8591 9.7757C43.8449 9.53304 43.8306 9.37602 43.8306 9.30464L44.0875 9.24755C44.1304 9.63296 44.1874 9.98982 44.2588 10.3324L44.373 10.8748C44.4444 11.2603 44.5729 11.8027 44.7584 12.4879L44.5015 12.545C44.4872 12.4879 44.4301 12.3166 44.3302 12.0025C44.2303 11.6885 44.0875 11.4744 43.8734 11.3459C43.6593 11.2174 43.4166 11.1889 43.1026 11.246L42.346 11.3887L42.8885 14.1437C42.9456 14.4292 43.0027 14.629 43.074 14.7575C43.1454 14.8717 43.2453 14.9431 43.3881 14.9716C43.5165 14.9859 43.7307 14.9716 44.0019 14.9145L44.8441 14.7432C45.3151 14.6433 45.672 14.5148 45.9004 14.3436C46.1288 14.1723 46.2573 13.9296 46.3144 13.6298C46.3715 13.3301 46.3715 12.9018 46.3286 12.3451L46.5856 12.288C46.6284 12.5021 46.6712 12.7734 46.7426 13.1159Z" fill="#023047"/>
<path d="M37.123 67.6305C36.4664 66.7455 35.8954 65.7749 35.3958 64.7043C34.8962 63.6337 34.4965 62.5488 34.1967 61.4354C33.5401 56.5392 33.5258 51.7858 34.1396 47.1751C34.7535 42.5645 35.7527 38.0252 37.123 33.5429C37.3514 33.0433 37.851 32.8007 38.6219 32.8007C39.3927 32.8007 40.1492 32.972 40.9201 33.3146C41.6909 33.6571 42.319 34.1139 42.8186 34.6849C43.3182 35.2559 43.4324 35.8554 43.1612 36.4692C42.7329 37.3828 42.319 38.6247 41.905 40.1663C41.491 41.7223 41.0771 43.4352 40.7059 45.3052C40.3205 47.1751 39.9922 49.145 39.7067 51.1863C39.4212 53.2275 39.2071 55.1974 39.0786 57.0674C38.9502 58.9373 38.9216 60.636 38.993 62.1491C39.0644 63.6622 39.2928 64.8613 39.6782 65.732C41.4768 63.3196 43.1183 60.8216 44.6172 58.2379C46.116 55.6542 47.5149 53.042 48.8281 50.3726C50.1414 47.7176 51.3976 45.0339 52.5823 42.3075C53.7671 39.5954 54.9376 36.9117 56.0796 34.271C56.6506 32.9291 57.2216 31.516 57.7783 30.0314C58.335 28.5326 59.063 27.2622 59.9908 26.1916C60.3762 25.849 60.676 25.7348 60.8759 25.849C61.09 25.9632 61.2327 26.1773 61.3041 26.5056C61.3755 26.8339 61.4183 27.1765 61.4183 27.5334C61.4183 27.8902 61.4183 28.1757 61.4183 28.3613C61.1471 30.1171 60.9187 31.8586 60.7331 33.5858C60.5475 35.313 60.1336 36.9688 59.534 38.5819C58.5348 41.1085 57.5213 43.6065 56.465 46.1045C55.4087 48.5883 54.281 51.0435 53.082 53.4559C51.8829 55.8683 50.5696 58.2093 49.185 60.479C47.7861 62.7629 46.273 64.9327 44.6172 66.9882C43.3182 68.6298 42.0192 69.5005 40.7488 69.6004C39.4212 69.7146 38.2364 69.0437 37.123 67.6305Z" fill="#023047" stroke="white" stroke-miterlimit="10"/>
<path d="M60.7627 61.1501C59.9919 60.0795 59.2353 58.9947 58.493 57.8812C57.7508 56.7678 57.3796 55.5545 57.3796 54.2127C57.3796 52.7281 57.8079 51.315 58.6643 49.9874C59.5208 48.6742 60.5058 47.6036 61.6192 46.8042C62.076 46.5044 62.547 46.2475 63.0181 46.0619C63.4891 45.8764 64.003 45.8906 64.5454 46.119C64.7738 46.2332 65.0165 46.3189 65.2592 46.376C65.5018 46.4331 65.7302 46.5044 65.9158 46.5758C66.1014 46.6472 66.3155 46.7614 66.5439 46.9184C66.7723 47.0754 66.8865 47.2753 66.8865 47.5465C66.8865 48.6171 66.915 49.4878 66.9721 50.1587C67.0292 50.8296 67.1149 51.4006 67.2291 51.8859C67.3433 52.3713 67.4575 52.7852 67.5717 53.1421C67.6858 53.5132 67.8 53.8986 67.9142 54.3126C67.9856 54.698 67.9713 55.0263 67.8571 55.2833C67.7429 55.5545 67.4575 55.583 67.0007 55.3975C66.1585 55.0977 65.5304 54.4839 65.1307 53.5561C64.731 52.6282 64.4313 51.8003 64.2457 51.0295C64.2029 50.8724 64.1172 50.6155 63.9602 50.2301C63.8032 49.8447 63.7175 49.5735 63.6747 49.4307C63.3749 49.3593 63.0038 49.4593 62.5898 49.7448C62.1759 50.0302 61.7905 50.4299 61.4764 50.9153C61.1481 51.4149 60.934 51.9859 60.8483 52.6425C60.7484 53.2991 60.8769 53.9415 61.2195 54.5981C61.3765 54.8265 61.5906 55.112 61.8761 55.426C62.1616 55.7543 62.4471 56.0826 62.7326 56.4252C63.0181 56.7678 63.3036 57.1104 63.5891 57.4245C63.8745 57.7385 64.1172 58.0097 64.3028 58.1953C64.5312 58.4237 64.6882 58.5521 64.7596 58.5664C64.8309 58.5807 65.0308 58.5379 65.3306 58.4237C65.716 58.2381 66.3012 57.9812 67.0863 57.6814C67.8714 57.3816 68.6993 57.0676 69.5558 56.7678C70.4123 56.4681 71.2402 56.2111 72.0253 55.997C72.8104 55.7829 73.4099 55.683 73.8382 55.683C74.1094 55.683 74.295 55.7829 74.4092 55.9684C74.5233 56.0826 74.5091 56.2397 74.3521 56.4252C74.195 56.6108 73.9952 56.8106 73.7525 56.9962C73.5099 57.1818 73.2386 57.3531 72.9817 57.5101C72.7105 57.6671 72.5392 57.7528 72.4678 57.7956C71.8112 58.181 70.9975 58.6092 69.9983 59.0946C68.9991 59.5656 68.1426 60.0367 67.4146 60.4935C67.3433 60.5649 67.2005 60.6505 66.9864 60.7219C66.7723 60.7932 66.6153 60.8789 66.5011 60.9503C66.9578 61.978 67.2862 62.8773 67.4717 63.6196C67.6573 64.3619 67.7287 65.0756 67.6716 65.7751C67.6145 66.4602 67.4717 67.1597 67.2433 67.8734C67.0149 68.5871 66.7009 69.4008 66.3298 70.3144C65.7873 71.1994 65.2449 72.0416 64.6882 72.841C64.1315 73.6403 63.5177 74.3683 62.8182 75.025C62.1331 75.6816 61.3765 76.1955 60.5771 76.5666C59.7778 76.952 58.8927 77.1376 57.9363 77.1376C57.3939 77.1376 56.88 77.0662 56.3804 76.9377C55.8808 76.8093 55.4668 76.5238 55.1243 76.1098C54.2392 75.1534 53.7539 74.1114 53.6397 72.9837C53.5255 71.856 53.6254 70.7426 53.9252 69.6292C54.1536 68.944 54.4391 68.3159 54.7817 67.7307C55.6239 66.2747 56.5517 65.0471 57.5652 64.0336C58.593 63.0343 59.6493 62.0637 60.7627 61.1501ZM62.7183 63.7338C62.2901 64.162 61.7191 64.7616 60.9911 65.5467C60.2631 66.3318 59.5922 67.1882 58.9498 68.1018C58.3218 69.0154 57.8079 69.9289 57.4082 70.8282C57.0085 71.7275 56.9086 72.4984 57.0941 73.155C57.865 72.8124 58.6501 72.2414 59.4494 71.4563C60.2488 70.6712 60.9625 69.8148 61.5763 68.8726C62.1902 67.9305 62.6184 67.0027 62.8611 66.0891C63.1037 65.1613 63.0609 64.3762 62.7183 63.7338Z" fill="#023047" stroke="white" stroke-miterlimit="10"/>
<path d="M51.4514 84.3887C33.594 84.3887 19.0625 69.8572 19.0625 51.9998C19.0625 34.1423 33.594 19.6108 51.4514 19.6108C69.3089 19.6108 83.8403 34.1423 83.8403 51.9998C83.8403 69.8572 69.3089 84.3887 51.4514 84.3887ZM51.4514 21.0383C34.3791 21.0383 20.49 34.9274 20.49 51.9998C20.49 69.0721 34.3791 82.9612 51.4514 82.9612C68.5238 82.9612 82.4129 69.0721 82.4129 51.9998C82.4129 34.9274 68.5238 21.0383 51.4514 21.0383Z" fill="#023047"/>
</svg>
