<svg width="207" height="62" viewBox="0 0 207 62" fill="none" xmlns="http://www.w3.org/2000/svg">
<g clip-path="url(#clip0_91_1567)">
<mask id="mask0_91_1567" style="mask-type:luminance" maskUnits="userSpaceOnUse" x="13" y="6" width="52" height="52">
<path d="M13.6567 6.19995H64.7857V57.2466H13.6567V6.19995Z" fill="white"/>
</mask>
<g mask="url(#mask0_91_1567)">
<mask id="mask1_91_1567" style="mask-type:luminance" maskUnits="userSpaceOnUse" x="13" y="6" width="52" height="52">
<path d="M39.2212 6.19995C25.1032 6.19995 13.6567 17.6269 13.6567 31.7233C13.6567 45.8197 25.1032 57.2466 39.2212 57.2466C53.3404 57.2466 64.7857 45.8197 64.7857 31.7233C64.7857 17.6269 53.3404 6.19995 39.2212 6.19995Z" fill="white"/>
</mask>
<g mask="url(#mask1_91_1567)">
<path d="M39.2212 6.19995C25.1032 6.19995 13.6567 17.6269 13.6567 31.7233C13.6567 45.8197 25.1032 57.2466 39.2212 57.2466C53.3404 57.2466 64.7857 45.8197 64.7857 31.7233C64.7857 17.6269 53.3404 6.19995 39.2212 6.19995Z" stroke="#F5B640" stroke-width="11.9932"/>
</g>
</g>
<mask id="mask2_91_1567" style="mask-type:luminance" maskUnits="userSpaceOnUse" x="20" y="13" width="38" height="38">
<path d="M20.7817 13.314H57.6914V50.1641H20.7817V13.314Z" fill="white"/>
</mask>
<g mask="url(#mask2_91_1567)">
<mask id="mask3_91_1567" style="mask-type:luminance" maskUnits="userSpaceOnUse" x="20" y="13" width="38" height="38">
<path d="M39.2371 13.314C29.0445 13.314 20.7817 21.5634 20.7817 31.7385C20.7817 41.9147 29.0445 50.1641 39.2371 50.1641C49.4297 50.1641 57.6914 41.9147 57.6914 31.7385C57.6914 21.5634 49.4297 13.314 39.2371 13.314Z" fill="white"/>
</mask>
<g mask="url(#mask3_91_1567)">
<path d="M20.7817 13.314H57.6914V50.1641H20.7817V13.314Z" fill="#023047"/>
</g>
</g>
<mask id="mask4_91_1567" style="mask-type:luminance" maskUnits="userSpaceOnUse" x="18" y="27" width="61" height="35">
<path d="M18.7681 27.28H78.3841V62H18.7681V27.28Z" fill="white"/>
</mask>
<g mask="url(#mask4_91_1567)">
<mask id="mask5_91_1567" style="mask-type:luminance" maskUnits="userSpaceOnUse" x="18" y="27" width="61" height="61">
<path d="M45.3536 27.4705L78.437 64.0332L51.9959 87.8806L18.9126 51.3179L45.3536 27.4705Z" fill="white"/>
</mask>
<g mask="url(#mask5_91_1567)">
<mask id="mask6_91_1567" style="mask-type:luminance" maskUnits="userSpaceOnUse" x="18" y="27" width="61" height="61">
<path d="M45.3535 27.4705L78.3613 63.9504L51.9376 87.7816L18.9297 51.3017L45.3535 27.4705Z" fill="white"/>
</mask>
<g mask="url(#mask6_91_1567)">
<path d="M45.3536 27.4705L78.3 63.8815L51.859 87.7289L18.9126 51.3179L45.3536 27.4705Z" fill="#023047"/>
</g>
</g>
</g>
<mask id="mask7_91_1567" style="mask-type:luminance" maskUnits="userSpaceOnUse" x="0" y="26" width="62" height="36">
<path d="M0.828125 26.1777H61.5481V62H0.828125V26.1777Z" fill="white"/>
</mask>
<g mask="url(#mask7_91_1567)">
<mask id="mask8_91_1567" style="mask-type:luminance" maskUnits="userSpaceOnUse" x="0" y="26" width="62" height="62">
<path d="M0.841309 62.9708L33.9753 26.1787L61.6907 51.0573L28.5567 87.8493L0.841309 62.9708Z" fill="white"/>
</mask>
<g mask="url(#mask8_91_1567)">
<mask id="mask9_91_1567" style="mask-type:luminance" maskUnits="userSpaceOnUse" x="0" y="26" width="62" height="62">
<path d="M0.841309 62.9708L33.8826 26.281L61.5203 51.0896L28.479 87.7794L0.841309 62.9708Z" fill="white"/>
</mask>
<g mask="url(#mask9_91_1567)">
<path d="M0.841309 62.9708L33.8384 26.3306L61.4018 51.0724L28.4047 87.7127L0.841309 62.9708Z" fill="#023047"/>
</g>
</g>
</g>
<mask id="mask10_91_1567" style="mask-type:luminance" maskUnits="userSpaceOnUse" x="28" y="9" width="12" height="35">
<path d="M28.98 9.4646H39.192V43.5377H28.98V9.4646Z" fill="white"/>
</mask>
<g mask="url(#mask10_91_1567)">
<path d="M38.9913 9.63354L38.8911 29.9138L38.8684 32.5359L32.7705 39.2676L30.1561 42.1577L29.9329 42.4031L29.0435 43.3923V13.36L38.9913 9.63354Z" fill="#F5B640"/>
</g>
<mask id="mask11_91_1567" style="mask-type:luminance" maskUnits="userSpaceOnUse" x="25" y="9" width="18" height="38">
<path d="M25.668 9.4646H42.504V46.8444H25.668V9.4646Z" fill="white"/>
</mask>
<g mask="url(#mask11_91_1567)">
<path d="M38.9913 9.63354L38.891 29.9138L38.8684 32.5359L32.7705 39.2677L30.1561 42.1578L29.9329 42.4032L29.0435 43.3924V13.36L38.9913 9.63354Z" stroke="white" stroke-width="1.11224" stroke-miterlimit="10"/>
</g>
<path d="M50.3721 20.1221V44.4744L40.5245 33.5942L40.4943 29.914L40.4253 16.3967L50.3721 20.1221Z" fill="#F5B640" stroke="white" stroke-width="1.11224" stroke-miterlimit="10"/>
<path d="M32.7705 27.153V39.2678L30.156 42.1579V37.9104L30.1323 23.4502L32.7705 27.153Z" fill="#023047" stroke="white" stroke-width="0.741495" stroke-miterlimit="10"/>
<path d="M29.933 22.8831V42.4034L29.0435 43.3926L23.6831 49.289V22.8831H29.933Z" fill="#22162B"/>
<mask id="mask12_91_1567" style="mask-type:luminance" maskUnits="userSpaceOnUse" x="21" y="20" width="12" height="31">
<path d="M21.252 20.6667H32.292V50.1781H21.252V20.6667Z" fill="white"/>
</mask>
<g mask="url(#mask12_91_1567)">
<path d="M29.933 22.8831V42.4034L29.0435 43.3926L23.6831 49.2891V22.8831H29.933Z" fill="#023047" stroke="white" stroke-width="0.741495" stroke-miterlimit="10"/>
</g>
<path d="M49.8739 39.9578L47.0125 39.9352L45.3867 38.3099L45.4104 31.8386L49.9267 31.8688L49.8739 39.9578Z" fill="#023047" stroke="white" stroke-width="0.741495" stroke-miterlimit="10"/>
<path d="M59.3067 50.1015H55.4568L50.3723 44.4741L40.5247 33.594L39.2137 32.1602L38.8687 32.5359L32.7708 39.2676L30.1564 42.1577L29.9332 42.4032L29.0438 43.3924L23.6833 49.2888L22.9696 50.1015H19.1196L23.6833 45.0414L29.0438 39.1223L29.9332 38.1557L30.1564 37.9103L32.7708 34.9965L37.2882 30.0128L37.3885 29.9138H41.039L41.1382 30.0128L45.3871 34.7285L49.8742 39.6659L50.3723 40.2342L59.3067 50.1015Z" fill="#22162B"/>
<mask id="mask13_91_1567" style="mask-type:luminance" maskUnits="userSpaceOnUse" x="18" y="27" width="42" height="24">
<path d="M18.9307 27.5557H59.5027V50.1781H18.9307V27.5557Z" fill="white"/>
</mask>
<g mask="url(#mask13_91_1567)">
<path d="M59.3062 50.1018H55.4562L50.3718 44.4744L40.5242 33.5942L39.2132 32.1605L38.8682 32.5362L32.7703 39.2679L30.1559 42.158L29.9327 42.4034L29.0433 43.3926L23.6828 49.2891L22.9691 50.1018H19.1191L23.6828 45.0417L29.0433 39.1226L29.9327 38.156L30.1559 37.9106L32.7703 34.9968L37.2877 30.0131L37.3879 29.9141H41.0385L41.1377 30.0131L45.3865 34.7288L49.8737 39.6662L50.3718 40.2345L59.3062 50.1018Z" fill="#023047" stroke="white" stroke-width="0.741495" stroke-miterlimit="10"/>
</g>
<path d="M41.238 29.9141L41.1378 30.0131L41.0386 29.9141H41.238Z" fill="#22162B" stroke="white" stroke-width="0.741495" stroke-miterlimit="10"/>
<path d="M37.3884 29.9141L37.2882 30.0131L37.189 29.9141H37.3884Z" fill="#22162B" stroke="white" stroke-width="0.741495" stroke-miterlimit="10"/>
<path d="M24.6494 26.8086H26.3291V28.5642H24.6494V26.8086Z" fill="white"/>
<path d="M27.1416 26.885H28.8213V28.6406H27.1416V26.885Z" fill="white"/>
<path d="M24.6494 29.2542H26.3291V31.0097H24.6494V29.2542Z" fill="white"/>
<path d="M27.1416 29.323H28.8213V31.0786H27.1416V29.323Z" fill="white"/>
<path d="M34.7729 40.1567H38.1087V43.6152H34.7729V40.1567Z" fill="#F5B640"/>
<path d="M39.7354 40.3032H43.0711V43.7606H39.7354V40.3032Z" fill="#F5B640"/>
<path d="M34.7729 44.9951H38.1087V48.4536H34.7729V44.9951Z" fill="#F5B640"/>
<path d="M39.7354 45.1406H43.0711V48.5991H39.7354V45.1406Z" fill="#F5B640"/>
<path d="M125.671 43.0242H126.775L125.231 50.7354H124.127L125.671 43.0242Z" fill="#FFC00C"/>
<path d="M136.833 43.0242L135.289 50.7354H134.383L130.933 44.7981L129.751 50.7354H128.647L130.191 43.0242H131.097L134.551 48.9615L135.729 43.0242H136.833Z" fill="#FFC00C"/>
<path d="M141.582 43.9843H138.943L139.133 43.0242H145.519L145.321 43.9843H142.682L141.328 50.7354H140.237L141.582 43.9843Z" fill="#FFC00C"/>
<path d="M148.724 43.9843L148.25 46.3524H152.131L151.946 47.2867H148.06L147.564 49.7753H152.08L151.89 50.7354H146.275L147.819 43.0242H153.27L153.08 43.9843H148.724Z" fill="#FFC00C"/>
<path d="M162.035 45.2846C162.035 46.0402 161.832 46.671 161.426 47.179C161.021 47.6849 160.452 48.0337 159.719 48.2253L161.129 50.7354H159.96L158.615 48.3803H156.342L155.876 50.7354H154.764L156.308 43.0242H159.188C160.091 43.0242 160.79 43.2211 161.288 43.614C161.786 44.008 162.035 44.5645 162.035 45.2846ZM158.438 47.4417C159.231 47.4417 159.845 47.2673 160.279 46.9164C160.713 46.5633 160.931 46.0531 160.931 45.3836C160.931 44.9218 160.772 44.5731 160.456 44.3374C160.139 44.1027 159.684 43.9843 159.089 43.9843H157.222L156.527 47.4417H158.438Z" fill="#FFC00C"/>
<path d="M165.424 43.0242H166.528L164.984 50.7354H163.88L165.424 43.0242Z" fill="#FFC00C"/>
<path d="M172.118 50.8215C171.362 50.8215 170.71 50.6869 170.165 50.4167C169.621 50.1444 169.205 49.7644 168.919 49.2758C168.631 48.7882 168.487 48.2209 168.487 47.5751C168.487 46.7172 168.682 45.9347 169.074 45.2285C169.464 44.5224 170.014 43.9649 170.721 43.5537C171.431 43.1436 172.25 42.938 173.179 42.938C173.935 42.938 174.586 43.0747 175.133 43.347C175.682 43.6172 176.1 43.9961 176.388 44.4837C176.675 44.9724 176.819 45.5407 176.819 46.1887C176.819 47.0476 176.623 47.8291 176.233 48.5352C175.844 49.2392 175.292 49.7957 174.577 50.2058C173.863 50.6169 173.043 50.8215 172.118 50.8215ZM172.218 49.8441C172.91 49.8441 173.521 49.6837 174.05 49.3619C174.579 49.0379 174.986 48.603 175.271 48.0573C175.558 47.5094 175.702 46.9077 175.702 46.2533C175.702 45.5418 175.476 44.9745 175.025 44.5526C174.573 44.1306 173.928 43.9197 173.089 43.9197C172.399 43.9197 171.787 44.0822 171.256 44.4062C170.727 44.728 170.317 45.164 170.027 45.7151C169.736 46.264 169.591 46.8625 169.591 47.5105C169.591 48.2231 169.818 48.7892 170.273 49.2112C170.73 49.6331 171.378 49.8441 172.218 49.8441Z" fill="#FFC00C"/>
<path d="M186.035 45.2846C186.035 46.0402 185.832 46.671 185.426 47.179C185.021 47.6849 184.452 48.0337 183.719 48.2253L185.129 50.7354H183.96L182.615 48.3803H180.342L179.876 50.7354H178.764L180.308 43.0242H183.188C184.091 43.0242 184.79 43.2211 185.288 43.614C185.786 44.008 186.035 44.5645 186.035 45.2846ZM182.438 47.4417C183.231 47.4417 183.845 47.2673 184.279 46.9164C184.713 46.5633 184.931 46.0531 184.931 45.3836C184.931 44.9218 184.772 44.5731 184.456 44.3374C184.139 44.1027 183.684 43.9843 183.089 43.9843H181.222L180.527 47.4417H182.438Z" fill="#FFC00C"/>
<path d="M190.265 50.8215C189.69 50.8215 189.135 50.7343 188.601 50.5588C188.068 50.3844 187.658 50.1606 187.372 49.8872L187.859 49.0045C188.152 49.2779 188.523 49.4932 188.972 49.6504C189.42 49.8086 189.884 49.8872 190.364 49.8872C190.996 49.8872 191.501 49.7731 191.878 49.5427C192.258 49.3102 192.447 48.9894 192.447 48.5783C192.447 48.3576 192.374 48.1735 192.227 48.0272C192.081 47.8808 191.9 47.7634 191.684 47.6741C191.471 47.5858 191.171 47.4825 190.783 47.3641C190.288 47.2177 189.89 47.0789 189.588 46.9465C189.288 46.8151 189.03 46.6182 188.812 46.3566C188.596 46.0961 188.489 45.7527 188.489 45.3276C188.489 44.8432 188.623 44.4213 188.894 44.0617C189.167 43.7033 189.546 43.4267 190.032 43.2308C190.518 43.0359 191.073 42.938 191.697 42.938C192.174 42.938 192.629 42.9961 193.06 43.1102C193.491 43.2222 193.864 43.3815 194.181 43.5881L193.737 44.4923C193.452 44.2856 193.13 44.1306 192.771 44.0273C192.414 43.924 192.038 43.8723 191.641 43.8723C191.008 43.8723 190.504 43.9961 190.127 44.2426C189.753 44.4901 189.567 44.8184 189.567 45.2285C189.567 45.4557 189.641 45.6462 189.791 45.8012C189.943 45.9562 190.132 46.0789 190.356 46.1672C190.58 46.2533 190.887 46.3555 191.279 46.4728C191.764 46.6192 192.155 46.757 192.452 46.8862C192.75 47.0153 193.005 47.2048 193.215 47.4545C193.424 47.7042 193.53 48.0272 193.53 48.4233C193.53 48.9141 193.392 49.3403 193.116 49.702C192.84 50.0615 192.454 50.3382 191.96 50.533C191.468 50.7257 190.904 50.8215 190.265 50.8215Z" fill="#FFC00C"/>
<path d="M78.3623 47.3708H117.486" stroke="white" stroke-width="5"/>
<path d="M78.5513 13.0161H81.4622V33.3469H78.5513V13.0161Z" fill="white"/>
<path d="M105.082 13.0161V33.3469H102.697L90.4798 18.1871V33.3469H87.5688V13.0161H89.958L102.175 28.176V13.0161H105.082Z" fill="white"/>
<path d="M117.128 33.5795C115.595 33.5795 114.116 33.3427 112.69 32.8691C111.264 32.3933 110.144 31.7776 109.331 31.022L110.405 28.7573C111.181 29.4548 112.174 30.0221 113.385 30.458C114.598 30.895 115.845 31.1124 117.128 31.1124C118.812 31.1124 120.071 30.8272 120.906 30.2556C121.742 29.6851 122.161 28.9241 122.161 27.9737C122.161 27.2762 121.932 26.7111 121.475 26.2773C121.02 25.8414 120.458 25.5066 119.789 25.2741C119.118 25.0416 118.173 24.779 116.951 24.4862C115.418 24.1191 114.183 23.7521 113.242 23.384C112.302 23.0169 111.497 22.4518 110.827 21.6876C110.157 20.9212 109.823 19.89 109.823 18.5919C109.823 17.5069 110.108 16.5295 110.681 15.6598C111.252 14.7879 112.121 14.0904 113.286 13.5673C114.45 13.0453 115.895 12.7837 117.62 12.7837C118.821 12.7837 120.004 12.9387 121.169 13.2487C122.333 13.5587 123.332 14.0043 124.166 14.5834L123.204 16.9084C122.353 16.3659 121.442 15.9547 120.47 15.6727C119.501 15.3918 118.551 15.2508 117.62 15.2508C115.972 15.2508 114.736 15.5511 113.911 16.1506C113.085 16.7513 112.673 17.5263 112.673 18.4756C112.673 19.1731 112.906 19.7404 113.372 20.1763C113.838 20.6101 114.413 20.9492 115.101 21.1924C115.791 21.4336 116.728 21.6908 117.913 21.9631C119.445 22.3313 120.675 22.6983 121.604 23.0654C122.536 23.4335 123.336 23.9943 124.006 24.7488C124.676 25.5045 125.011 26.5216 125.011 27.8015C125.011 28.8671 124.719 29.8401 124.136 30.7206C123.555 31.599 122.672 32.2954 121.488 32.8088C120.306 33.3233 118.853 33.5795 117.128 33.5795Z" fill="white"/>
<path d="M137.198 13.0161C139.834 13.0161 141.908 13.6469 143.42 14.9063C144.935 16.1635 145.693 17.8965 145.693 20.1031C145.693 22.3107 144.935 24.0448 143.42 25.3042C141.908 26.5614 139.834 27.19 137.198 27.19H132.165V33.3469H129.254V13.0161H137.198ZM137.111 24.6626C138.954 24.6626 140.36 24.2708 141.329 23.4872C142.297 22.7036 142.782 21.5756 142.782 20.1031C142.782 18.6306 142.297 17.5025 141.329 16.7189C140.36 15.9353 138.954 15.5435 137.111 15.5435H132.165V24.6626H137.111Z" fill="white"/>
<path d="M150.256 13.0161H153.167V33.3469H150.256V13.0161Z" fill="white"/>
<path d="M172.889 33.3469L168.499 27.1039C167.955 27.1416 167.529 27.1599 167.218 27.1599H162.185V33.3469H159.274V13.0161H167.218C169.854 13.0161 171.928 13.6469 173.441 14.9063C174.956 16.1635 175.714 17.8965 175.714 20.1031C175.714 21.6703 175.326 23.0072 174.549 24.1115C173.773 25.2138 172.667 26.0178 171.233 26.5226L176.063 33.3469H172.889ZM167.132 24.6928C168.974 24.6928 170.38 24.2967 171.349 23.5044C172.318 22.7101 172.803 21.5756 172.803 20.1031C172.803 18.6306 172.318 17.5025 171.349 16.7189C170.38 15.9353 168.974 15.5435 167.132 15.5435H162.185V24.6928H167.132Z" fill="white"/>
<path d="M195.201 30.8196V33.3469H180.422V13.0161H194.795V15.5435H183.333V21.7865H193.545V24.2579H183.333V30.8196H195.201Z" fill="white"/>
</g>
<defs>
<clipPath id="clip0_91_1567">
<rect width="207" height="62" fill="white"/>
</clipPath>
</defs>
</svg>
